<?xml version="1.0" encoding="utf-8"?>
<!-- Generator: Adobe Illustrator 17.0.0, SVG Export Plug-In . SVG Version: 6.00 Build 0)  -->
<!DOCTYPE svg PUBLIC "-//W3C//DTD SVG 1.1//EN" "http://www.w3.org/Graphics/SVG/1.1/DTD/svg11.dtd">
<svg version="1.1" id="Layer_1" xmlns="http://www.w3.org/2000/svg" xmlns:xlink="http://www.w3.org/1999/xlink" x="0px" y="0px"
	 width="286.11px" height="104px" viewBox="0 0 286.11 104" enable-background="new 0 0 286.11 104" xml:space="preserve">
<g>
	<rect x="0.003" width="286.107" height="104.75"/>
	<g>
		<g>
			<polygon fill="#FFFFFF" points="9.326,7.922 112.944,7.922 144.458,66.411 177.484,7.732 197.905,7.669 197.905,77.252 
				183.283,77.252 183.283,20.023 151.265,76.748 136.642,76.748 103.868,15.989 23.949,15.989 23.949,36.662 85.716,36.914 
				85.716,45.738 23.697,45.738 23.697,68.932 92.019,68.932 92.019,78.008 9.326,78.008 			"/>
			<polygon fill="#FFFFFF" points="203.956,36.998 203.956,44.982 261.437,44.982 261.437,78.26 276.627,78.26 276.627,7.838 
				261.605,7.838 261.605,36.914 			"/>
		</g>
		<g>
			<polygon fill="#FFFFFF" points="11.967,86.291 19.371,86.291 19.371,83.599 9.213,83.599 9.213,97.031 19.31,97.031 
				19.31,93.696 11.936,93.696 11.936,91.468 19.341,91.468 19.341,88.776 11.967,88.776 			"/>
			<path fill="#FFFFFF" d="M43.483,86.995v7.313c0,0-0.306,2.662,4.192,2.662c0,0,1.43,0.038,2.44-0.65v0.688h2.731V87.003h-2.662
				v5.898c0,0-0.252,1.446-2.042,1.446c0,0-1.916,0.034-1.951-1.354V86.98L43.483,86.995z"/>
			<path fill="#FFFFFF" d="M97.791,86.964h-1.985v2.662h1.928v4.682c0,0-0.145,2.754,1.989,2.754h3.427v-2.693h-2.019
				c0,0-0.711,0.057-0.666-1.354v-3.373h2.696v-2.651h-2.674v-2.042h-2.685L97.791,86.964z"/>
			<polygon fill="#FFFFFF" points="109.178,86.964 112.482,86.964 114.563,92.931 116.644,86.964 119.979,86.964 114.563,101.04 
				111.197,101.04 112.635,95.624 			"/>
			<polygon fill="#FFFFFF" points="125.976,83.583 125.976,97.031 129.312,97.031 129.312,88.311 133.649,92.992 137.367,88.38 
				137.367,97.008 140.74,97.008 140.74,83.606 137.321,83.606 133.695,88.334 129.334,83.583 			"/>
			<path fill="#FFFFFF" d="M152.474,86.781c-2.839,0-5.141,2.301-5.141,5.141c0,2.839,2.302,5.141,5.141,5.141
				c2.839,0,5.141-2.301,5.141-5.141C157.615,89.082,155.314,86.781,152.474,86.781z M152.474,94.369
				c-1.352,0-2.448-1.096-2.448-2.448c0-1.352,1.096-2.448,2.448-2.448c1.352,0,2.448,1.096,2.448,2.448
				C154.922,93.273,153.826,94.369,152.474,94.369z"/>
			<path fill="#FFFFFF" d="M171.583,83.56v4.133c-0.812-0.537-1.784-0.851-2.83-0.851c-2.839,0-5.141,2.301-5.141,5.141
				s2.301,5.141,5.141,5.141c1.046,0,2.018-0.314,2.83-0.851v0.76h2.662V83.56H171.583z M168.753,94.43
				c-1.352,0-2.448-1.096-2.448-2.448c0-1.352,1.096-2.448,2.448-2.448c1.352,0,2.448,1.096,2.448,2.448
				C171.201,93.335,170.105,94.43,168.753,94.43z"/>
			<path fill="#FFFFFF" d="M186.592,95.035c-2.96,0-2.968-2.027-2.968-2.027l8.017-0.031c0-6.456-5.278-6.135-5.278-6.135
				c-5.577,0-5.393,4.98-5.393,4.98c0,4.815,3.983,5.216,5.072,5.235c-0.542,0.006-1.54,0.02,0.366,0.02
				c2.456,0,3.901-0.711,3.901-0.711l-0.688-2.065C188.565,95.127,186.592,95.035,186.592,95.035z M186.301,88.984
				c0,0,2.05-0.168,2.723,1.989h-5.355C183.67,90.973,184.251,88.984,186.301,88.984z"/>
			<polygon fill="#FFFFFF" points="198.387,83.629 198.387,97.077 201.141,97.077 201.141,91.592 207.085,91.592 207.085,97.031 
				209.816,97.031 209.816,83.629 207.131,83.629 207.131,88.999 201.118,88.999 201.118,83.652 			"/>
			<path fill="#FFFFFF" d="M221.933,86.842c-2.839,0-5.141,2.301-5.141,5.141s2.302,5.141,5.141,5.141
				c2.839,0,5.141-2.301,5.141-5.141S224.772,86.842,221.933,86.842z M221.933,94.43c-1.352,0-2.448-1.096-2.448-2.448
				c0-1.352,1.096-2.448,2.448-2.448c1.352,0,2.448,1.096,2.448,2.448C224.381,93.335,223.285,94.43,221.933,94.43z"/>
			<path fill="#FFFFFF" d="M233.958,87.117v7.313c0,0-0.306,2.662,4.192,2.662c0,0,1.43,0.038,2.44-0.65v0.688h2.731V87.125h-2.662
				v5.898c0,0-0.252,1.446-2.042,1.446c0,0-1.916,0.034-1.951-1.354v-6.013L233.958,87.117z"/>
			<path fill="#FFFFFF" d="M256.647,90.04l1.545-1.614c0,0-1.446-1.492-3.626-1.492c-2.18,0-0.092,0-0.092,0
				s-4.452-0.229-4.452,3.144c0,0-0.275,3.136,4.085,3.136c0,0,1.836-0.107,1.836,0.987c0,0,0.153,0.811-1.683,0.811
				c0,0-1.932,0.092-3.519-1.331l-0.658,2.647c0,0,2.54,1.01,4.33,1.01c0,0,4.054,0.352,4.054-3.289c0,0,0.252-2.892-3.985-2.892
				c0,0-1.74-0.126-1.74-1.136c0,0-0.057-0.776,1.687-0.776C254.428,89.244,255.499,89.229,256.647,90.04z"/>
			<path fill="#FFFFFF" d="M270.37,94.943c-2.96,0-2.968-2.027-2.968-2.027l8.017-0.031c0-6.456-5.278-6.135-5.278-6.135
				c-5.577,0-5.393,4.98-5.393,4.98c0,4.815,3.984,5.216,5.072,5.235c-0.542,0.006-1.54,0.02,0.366,0.02
				c2.456,0,3.901-0.711,3.901-0.711l-0.688-2.065C272.344,95.035,270.37,94.943,270.37,94.943z M270.079,88.892
				c0,0,2.05-0.168,2.723,1.989h-5.355C267.448,90.881,268.029,88.892,270.079,88.892z"/>
			<path fill="#FFFFFF" d="M67.671,86.926v0.89c-0.812-0.537-1.784-0.851-2.83-0.851c-2.839,0-5.141,2.301-5.141,5.141
				c0,2.839,2.301,5.141,5.141,5.141c1.046,0,2.018-0.314,2.83-0.851v0.76h2.662V86.926H67.671z M64.841,94.553
				c-1.352,0-2.448-1.096-2.448-2.448c0-1.352,1.096-2.448,2.448-2.448c1.352,0,2.448,1.096,2.448,2.448
				C67.289,93.457,66.193,94.553,64.841,94.553z"/>
			<path fill="#FFFFFF" d="M33.799,87.202v0.89c-0.812-0.537-1.784-0.851-2.83-0.851c-2.839,0-5.141,2.301-5.141,5.141
				c0,2.839,2.301,5.141,5.141,5.141c1.046,0,2.018-0.314,2.83-0.851v4.355h2.662V87.202H33.799z M30.968,94.828
				c-1.352,0-2.448-1.096-2.448-2.448c0-1.352,1.096-2.448,2.448-2.448c1.352,0,2.448,1.096,2.448,2.448
				C33.416,93.732,32.32,94.828,30.968,94.828z"/>
			<g>
				<circle fill="#FFFFFF" cx="88.417" cy="84.777" r="1.606"/>
				<rect x="87.063" y="87.803" fill="#FFFFFF" width="2.662" height="9.229"/>
			</g>
			<rect x="77.024" y="83.582" fill="#FFFFFF" width="2.662" height="13.449"/>
		</g>
	</g>
</g>
</svg>
